<svg xmlns="http://www.w3.org/2000/svg" viewBox="0 0 64 64">
  <defs>
    <linearGradient id="g" x1="0" y1="0" x2="1" y2="1">
      <stop offset="0%" stop-color="#F6EBC1"/>
      <stop offset="100%" stop-color="#D4AF37"/>
    </linearGradient>
  </defs>
  <rect width="64" height="64" rx="14" fill="#1B120D"/>
  <path d="M14 24h28a4 4 0 0 1 4 4v8a14 14 0 0 1-14 14H24A14 14 0 0 1 10 36v-8a4 4 0 0 1 4-4z" fill="url(#g)"/>
  <path d="M46 28h4a6 6 0 0 1 0 12h-4" fill="none" stroke="url(#g)" stroke-width="3" stroke-linecap="round"/>
  <path d="M22 12c2 3-2 5 0 8M30 12c2 3-2 5 0 8M38 12c2 3-2 5 0 8" stroke="#D4AF37" stroke-width="2" stroke-linecap="round" fill="none" opacity="0.9"/>
</svg>
